name rise30.8019peak61.5557fall86.2505.mot
datacolumns 19
datarows 32
range 18.61326500000000 18.66493500000000
endheader
time	ground_force1_vx	ground_force1_vy	ground_force1_vz	ground_force1_px	ground_force1_py	ground_force1_pz	ground_force2_vx	ground_force2_vy	ground_force2_vz	ground_force2_px	ground_force2_py	ground_force2_pz	ground_torque1_x	ground_torque1_y	ground_torque1_z	ground_torque2_x	ground_torque2_y	ground_torque2_z	
18.61326500000000	-4.41630900000000	41.38325300000000	-9.06535100000000	0.25657100000000	0.00000000000000	0.08768700000000	-63.77109500000000	750.40564900000004	-48.06220000000000	0.00696500000000	0.00000000000000	-0.07567000000000	0.00000000000000	-4.98944800000000	0.00000000000000	0.00000000000000	-9.13586900000000	0.00000000000000	
18.61495500000000	-4.70384700000000	48.29039100000000	-10.17179100000000	0.26111500000000	0.00000000000000	0.08850100000000	-64.76603100000000	747.93322699999999	-47.75631700000000	0.00593600000000	0.00000000000000	-0.07555600000000	0.00000000000000	-5.68155000000000	0.00000000000000	0.00000000000000	-9.19689600000000	0.00000000000000	
18.61659400000000	-4.86920500000000	55.22877700000000	-11.17064900000000	0.26532900000000	0.00000000000000	0.08923900000000	-65.77372800000001	745.34925899999996	-47.43655000000000	0.00490900000000	0.00000000000000	-0.07543900000000	0.00000000000000	-6.33152500000000	0.00000000000000	0.00000000000000	-9.26223100000000	0.00000000000000	
18.61826600000000	-4.89967700000000	62.10478200000000	-12.03852800000000	0.26925500000000	0.00000000000000	0.08991300000000	-66.79261800000000	742.65034000000003	-47.10237900000000	0.00388500000000	0.00000000000000	-0.07532100000000	0.00000000000000	-6.92497700000000	0.00000000000000	0.00000000000000	-9.33173300000000	0.00000000000000	
18.61993200000000	-4.78852200000000	68.84907600000000	-12.76034600000000	0.27292700000000	0.00000000000000	0.09053200000000	-67.82104200000001	739.83305600000006	-46.75329100000000	0.00286500000000	0.00000000000000	-0.07520000000000	0.00000000000000	-7.45179400000000	0.00000000000000	0.00000000000000	-9.40524500000000	0.00000000000000	
18.62159700000000	-4.53476700000000	75.41858499999999	-13.32939500000000	0.27637300000000	0.00000000000000	0.09110200000000	-68.85724399999999	736.89398800000004	-46.38878300000000	0.00184900000000	0.00000000000000	-0.07507700000000	0.00000000000000	-7.90635200000000	0.00000000000000	0.00000000000000	-9.48259600000000	0.00000000000000	
18.62326200000000	-4.14255900000000	81.79595800000000	-13.74670600000000	0.27961600000000	0.00000000000000	0.09163100000000	-69.89937800000000	733.82972900000004	-46.00837100000000	0.00083800000000	0.00000000000000	-0.07495200000000	0.00000000000000	-8.28731300000000	0.00000000000000	0.00000000000000	-9.56359800000000	0.00000000000000	
18.62492800000000	-3.62022200000000	87.98699900000000	-14.01988900000000	0.28267600000000	0.00000000000000	0.09212200000000	-70.94550700000001	730.63689399999998	-45.61158800000000	-0.00016700000000	0.00000000000000	-0.07482500000000	0.00000000000000	-8.59711000000000	0.00000000000000	0.00000000000000	-9.64804900000000	0.00000000000000	
18.62660200000000	-2.97913300000000	94.01664900000000	-14.16163100000000	0.28557000000000	0.00000000000000	0.09258000000000	-71.99361399999999	727.31213700000001	-45.19798900000000	-0.00116600000000	0.00000000000000	-0.07469600000000	0.00000000000000	-8.84120600000000	0.00000000000000	0.00000000000000	-9.73573300000000	0.00000000000000	
18.62826400000000	-2.23254000000000	99.92407700000000	-14.18803700000000	0.28831200000000	0.00000000000000	0.09300900000000	-73.04159600000000	723.85215800000003	-44.76715500000000	-0.00215800000000	0.00000000000000	-0.07456400000000	0.00000000000000	-9.02722400000000	0.00000000000000	0.00000000000000	-9.82641600000000	0.00000000000000	
18.62993100000000	-1.39443600000000	105.75746100000001	-14.11698000000000	0.29091200000000	0.00000000000000	0.09341200000000	-74.08727600000000	720.25371800000005	-44.31869800000000	-0.00314200000000	0.00000000000000	-0.07443100000000	0.00000000000000	-9.16405600000000	0.00000000000000	0.00000000000000	-9.91985300000000	0.00000000000000	
18.63159600000000	-0.47856600000000	111.56893300000000	-13.96658700000000	0.29338200000000	0.00000000000000	0.09379200000000	-75.12840500000000	716.51365499999997	-43.85226100000000	-0.00411700000000	0.00000000000000	-0.07429500000000	0.00000000000000	-9.26101100000000	0.00000000000000	0.00000000000000	-10.01578200000000	0.00000000000000	
18.63326600000000	0.50237200000000	117.41005100000000	-13.75396900000000	0.29572900000000	0.00000000000000	0.09415100000000	-76.16266600000000	712.62889299999995	-43.36752400000000	-0.00508400000000	0.00000000000000	-0.07415700000000	0.00000000000000	-9.32708200000000	0.00000000000000	0.00000000000000	-10.11392900000000	0.00000000000000	
18.63492800000000	1.53731200000000	123.32808900000001	-13.49424200000000	0.29796100000000	0.00000000000000	0.09449000000000	-77.18768000000000	708.59645999999998	-42.86420700000000	-0.00604100000000	0.00000000000000	-0.07401600000000	0.00000000000000	-9.37035300000000	0.00000000000000	0.00000000000000	-10.21400500000000	0.00000000000000	
18.63659800000000	2.61717300000000	129.36325299999999	-13.19986500000000	0.30008500000000	0.00000000000000	0.09481200000000	-78.20101200000001	704.41349600000001	-42.34207200000000	-0.00698800000000	0.00000000000000	-0.07387400000000	0.00000000000000	-9.39758400000000	0.00000000000000	0.00000000000000	-10.31570900000000	0.00000000000000	
18.63826900000000	3.73500100000000	135.54690900000000	-12.88030200000000	0.30210600000000	0.00000000000000	0.09511800000000	-79.20017900000001	700.07727199999999	-41.80092700000000	-0.00792500000000	0.00000000000000	-0.07372900000000	0.00000000000000	-9.41396500000000	0.00000000000000	0.00000000000000	-10.41872700000000	0.00000000000000	
18.63993700000000	4.88591900000000	141.90074899999999	-12.54195700000000	0.30402700000000	0.00000000000000	0.09541000000000	-80.18265400000000	695.58520299999998	-41.24062700000000	-0.00885200000000	0.00000000000000	-0.07358200000000	0.00000000000000	-9.42303200000000	0.00000000000000	0.00000000000000	-10.52273500000000	0.00000000000000	
18.64159900000000	6.06693900000000	148.43679700000001	-12.18835700000000	0.30585500000000	0.00000000000000	0.09568800000000	-81.14587100000000	690.93485799999996	-40.66108100000000	-0.00976700000000	0.00000000000000	-0.07343200000000	0.00000000000000	-9.42672300000000	0.00000000000000	0.00000000000000	-10.62739400000000	0.00000000000000	
18.64326100000000	7.27665400000000	155.15810400000001	-11.82050500000000	0.30759100000000	0.00000000000000	0.09595400000000	-82.08723700000000	686.12397999999996	-40.06224900000000	-0.01067100000000	0.00000000000000	-0.07328100000000	0.00000000000000	-9.42555000000000	0.00000000000000	0.00000000000000	-10.73236000000000	0.00000000000000	
18.64493900000000	8.51487700000000	162.05995100000001	-11.43736300000000	0.30923900000000	0.00000000000000	0.09620900000000	-83.00413700000000	681.15050099999996	-39.44414800000000	-0.01156300000000	0.00000000000000	-0.07312700000000	0.00000000000000	-9.41883800000000	0.00000000000000	0.00000000000000	-10.83727400000000	0.00000000000000	
18.64659500000000	9.78224000000000	169.13137200000000	-11.03639400000000	0.31080200000000	0.00000000000000	0.09645300000000	-83.89393699999999	676.01255100000003	-38.80685000000000	-0.01244300000000	0.00000000000000	-0.07297100000000	0.00000000000000	-9.40502000000000	0.00000000000000	0.00000000000000	-10.94177100000000	0.00000000000000	
18.64826800000000	11.07982000000000	176.35683499999999	-10.61411300000000	0.31228100000000	0.00000000000000	0.09668600000000	-84.75400200000000	670.70848100000001	-38.15048800000000	-0.01331200000000	0.00000000000000	-0.07281300000000	0.00000000000000	-9.38193800000000	0.00000000000000	0.00000000000000	-11.04547900000000	0.00000000000000	
18.64993300000000	12.40878400000000	183.71791300000001	-10.16661100000000	0.31367900000000	0.00000000000000	0.09691100000000	-85.58169100000001	665.23686999999995	-37.47525600000000	-0.01416800000000	0.00000000000000	-0.07265300000000	0.00000000000000	-9.34714200000000	0.00000000000000	0.00000000000000	-11.14801800000000	0.00000000000000	
18.65159700000000	13.77010000000000	191.19483700000001	-9.69000700000000	0.31499700000000	0.00000000000000	0.09712700000000	-86.37437500000000	659.59654999999998	-36.78140600000000	-0.01501200000000	0.00000000000000	-0.07249000000000	0.00000000000000	-9.29815200000000	0.00000000000000	0.00000000000000	-11.24900200000000	0.00000000000000	
18.65326500000000	15.16430900000000	198.76783499999999	-9.18082400000000	0.31623700000000	0.00000000000000	0.09733500000000	-87.12944100000000	653.78660900000000	-36.06925200000000	-0.01584300000000	0.00000000000000	-0.07232600000000	0.00000000000000	-9.23268000000000	0.00000000000000	0.00000000000000	-11.34804000000000	0.00000000000000	
18.65493300000000	16.59137100000000	206.41820400000000	-8.63625700000000	0.31740000000000	0.00000000000000	0.09753500000000	-87.84429799999999	647.80641600000001	-35.33917300000000	-0.01666300000000	0.00000000000000	-0.07216000000000	0.00000000000000	-9.14879300000000	0.00000000000000	0.00000000000000	-11.44473900000000	0.00000000000000	
18.65660100000000	18.05057700000000	214.12907799999999	-8.05435100000000	0.31848600000000	0.00000000000000	0.09772700000000	-88.51638800000001	641.65562299999999	-34.59160700000000	-0.01747100000000	0.00000000000000	-0.07199100000000	0.00000000000000	-9.04502800000000	0.00000000000000	0.00000000000000	-11.53870300000000	0.00000000000000	
18.65826100000000	19.54052600000000	221.88591199999999	-7.43408500000000	0.31949700000000	0.00000000000000	0.09791300000000	-89.14319300000000	635.33418400000005	-33.82705500000000	-0.01826600000000	0.00000000000000	-0.07182100000000	0.00000000000000	-8.92044900000000	0.00000000000000	0.00000000000000	-11.62953400000000	0.00000000000000	
18.65993200000000	21.05915100000000	229.67669500000000	-6.77536900000000	0.32043300000000	0.00000000000000	0.09809200000000	-89.72224100000000	628.84236199999998	-33.04607900000000	-0.01905000000000	0.00000000000000	-0.07164900000000	0.00000000000000	-8.77465900000000	0.00000000000000	0.00000000000000	-11.71683300000000	0.00000000000000	
18.66159700000000	22.60379200000000	237.49192700000000	-6.07899000000000	0.32129600000000	0.00000000000000	0.09826400000000	-90.25111800000001	622.18073500000003	-32.24930300000000	-0.01982200000000	0.00000000000000	-0.07147600000000	0.00000000000000	-8.60777100000000	0.00000000000000	0.00000000000000	-11.80020500000000	0.00000000000000	
18.66326800000000	24.17129200000000	245.32442300000000	-5.34649100000000	0.32208500000000	0.00000000000000	0.09843000000000	-90.72747300000000	615.35019899999998	-31.43741100000000	-0.02058300000000	0.00000000000000	-0.07130000000000	0.00000000000000	-8.42035400000000	0.00000000000000	0.00000000000000	-11.87925400000000	0.00000000000000	
18.66493500000000	25.75810900000000	253.16898200000000	-4.58003900000000	0.32280100000000	0.00000000000000	0.09859100000000	-91.14902499999999	608.35197800000003	-30.61114700000000	-0.02133300000000	0.00000000000000	-0.07112300000000	0.00000000000000	-8.21335400000000	0.00000000000000	0.00000000000000	-11.95359000000000	0.00000000000000	
